<svg xmlns="http://www.w3.org/2000/svg" xmlns:xlink="http://www.w3.org/1999/xlink" width="100" height="100" viewBox="0 0 100 100"><defs><style>.a{fill:rgba(255,255,255,0.3);}.b{fill:#fff;}.c{filter:url(#c);}.d{filter:url(#a);}</style><filter id="a" x="0" y="0" width="100" height="100" filterUnits="userSpaceOnUse"><feOffset input="SourceAlpha"/><feGaussianBlur stdDeviation="5" result="b"/><feFlood flood-opacity="0.251"/><feComposite operator="in" in2="b"/><feComposite in="SourceGraphic"/></filter><filter id="c" x="10" y="10" width="80" height="80" filterUnits="userSpaceOnUse"><feOffset input="SourceAlpha"/><feGaussianBlur stdDeviation="5" result="d"/><feFlood flood-opacity="0.251"/><feComposite operator="in" in2="d"/><feComposite in="SourceGraphic"/></filter></defs><g transform="translate(-960 -571)"><g class="d" transform="matrix(1, 0, 0, 1, 960, 571)"><circle class="a" cx="35" cy="35" r="35" transform="translate(15 15)"/></g><g class="c" transform="matrix(1, 0, 0, 1, 960, 571)"><circle class="a" cx="25" cy="25" r="25" transform="translate(25 25)"/></g><path class="b" d="M7.712,7.712,1.678,13.746a.983.983,0,0,1-1.39-1.39l5.34-5.339L.288,1.678A.983.983,0,0,1,1.678.288L7.712,6.322a.983.983,0,0,1,0,1.389Zm0,0" transform="translate(1016.781 620.609) rotate(90)"/><path class="b" d="M7.712,7.712,1.678,13.746a.983.983,0,0,1-1.39-1.39l5.34-5.339L.288,1.678A.983.983,0,0,1,1.678.288L7.712,6.322a.983.983,0,0,1,0,1.389Zm0,0" transform="translate(1016.781 614.451) rotate(90)"/></g></svg>