<?xml version="1.0" encoding="utf-8"?>
<!-- Generator: Adobe Illustrator 22.1.0, SVG Export Plug-In . SVG Version: 6.00 Build 0)  -->
<svg version="1.1" id="Слой_1" xmlns="http://www.w3.org/2000/svg" xmlns:xlink="http://www.w3.org/1999/xlink" x="0px" y="0px"
	 viewBox="0 0 70 69.8" style="enable-background:new 0 0 70 69.8;" xml:space="preserve">
<style type="text/css">
	.st0{filter:url(#Ellipse_2);}
	.st1{filter:url(#Ellipse_3);}
	.st2{fill:#FFFFFF;}
</style>
<filter  filterUnits="userSpaceOnUse" height="80" id="Ellipse_3" width="80" x="10" y="10">
	<feOffset  input="SourceAlpha"></feOffset>
	<feGaussianBlur  result="blur-2" stdDeviation="5"></feGaussianBlur>
	<feFlood  flood-opacity="0.251"></feFlood>
	<feComposite  in2="blur-2" operator="in"></feComposite>
	<feComposite  in="SourceGraphic" operator="over"></feComposite>
</filter>
<filter  filterUnits="userSpaceOnUse" height="100" id="Ellipse_2" width="100" x="0" y="0">
	<feOffset  input="SourceAlpha"></feOffset>
	<feGaussianBlur  result="blur" stdDeviation="5"></feGaussianBlur>
	<feFlood  flood-opacity="0.251"></feFlood>
	<feComposite  in2="blur" operator="in"></feComposite>
	<feComposite  in="SourceGraphic" operator="over"></feComposite>
</filter>
<g id="bt" transform="translate(-960 -571)">
	<g transform="matrix(1, 0, 0, 1, 960, 571)" class="st0">
		<circle id="Ellipse_2-2_1_" cx="35" cy="35" r="35"/>
	</g>
	<g transform="matrix(1, 0, 0, 1, 960, 571)" class="st1">
		<circle id="Ellipse_3-2_1_" cx="35" cy="35" r="25"/>
	</g>
	<path id="arrow" class="st2" d="M994.1,613.3l-6-6c-0.4-0.4-0.4-1,0-1.4c0.4-0.4,1-0.4,1.4,0l5.3,5.3l5.3-5.3c0.4-0.4,1-0.4,1.4,0
		c0.4,0.4,0.4,1,0,1.4l-6,6C995.1,613.7,994.5,613.7,994.1,613.3L994.1,613.3z"/>
	<path id="arrow-2" class="st2" d="M994.1,607.2l-6-6c-0.4-0.4-0.4-1,0-1.4c0.4-0.4,1-0.4,1.4,0l5.3,5.3l5.3-5.3
		c0.4-0.4,1-0.4,1.4,0c0.4,0.4,0.4,1,0,1.4l-6,6C995.1,607.5,994.5,607.5,994.1,607.2L994.1,607.2z"/>
</g>
</svg>
