<svg xmlns="http://www.w3.org/2000/svg" width="84" height="84" viewBox="0 0 84 84"><defs><mask id="dfazb" width="2" height="2" x="-1" y="-1"><path fill="#fff" d="M7 7h70v70H7z"/><path d="M7 42C7 22.67 22.67 7 42 7s35 15.67 35 35-15.67 35-35 35S7 61.33 7 42z"/></mask><filter id="dfaza" width="110" height="110" x="-13" y="-13" filterUnits="userSpaceOnUse"><feOffset in="SourceGraphic" result="FeOffset1025Out"/><feGaussianBlur in="FeOffset1025Out" result="FeGaussianBlur1026Out" stdDeviation="4 4"/></filter><mask id="dfazd" width="2" height="2" x="-1" y="-1"><path fill="#fff" d="M17 17h50v50H17z"/><path d="M17 42c0-13.807 11.193-25 25-25s25 11.193 25 25-11.193 25-25 25-25-11.193-25-25z"/></mask><filter id="dfazc" width="90" height="90" x="-3" y="-3" filterUnits="userSpaceOnUse"><feOffset in="SourceGraphic" result="FeOffset1041Out"/><feGaussianBlur in="FeOffset1041Out" result="FeGaussianBlur1042Out" stdDeviation="4 4"/></filter></defs><g><g><g><g filter="url(#dfaza)"><path fill="none" d="M7 42C7 22.67 22.67 7 42 7s35 15.67 35 35-15.67 35-35 35S7 61.33 7 42z" mask="url(&quot;#dfazb&quot;)"/><path fill-opacity=".25" d="M7 42C7 22.67 22.67 7 42 7s35 15.67 35 35-15.67 35-35 35S7 61.33 7 42z"/></g><path fill="#fff" fill-opacity=".3" d="M7 42C7 22.67 22.67 7 42 7s35 15.67 35 35-15.67 35-35 35S7 61.33 7 42z"/></g><g><g filter="url(#dfazc)"><path fill="none" d="M17 42c0-13.807 11.193-25 25-25s25 11.193 25 25-11.193 25-25 25-25-11.193-25-25z" mask="url(&quot;#dfazd&quot;)"/><path fill-opacity=".25" d="M17 42c0-13.807 11.193-25 25-25s25 11.193 25 25-11.193 25-25 25-25-11.193-25-25z"/></g><path fill="#fff" fill-opacity=".3" d="M17 42c0-13.807 11.193-25 25-25s25 11.193 25 25-11.193 25-25 25-25-11.193-25-25z"/></g><g><path fill="#fff" d="M41.07 49.321l-6.035-6.034a.982.982 0 1 1 1.39-1.39l5.34 5.34 5.339-5.34a.983.983 0 1 1 1.39 1.39l-6.035 6.034a.979.979 0 0 1-1.39 0z"/></g><g><path fill="#fff" d="M41.07 43.164l-6.035-6.035a.982.982 0 1 1 1.39-1.39l5.34 5.34 5.339-5.34a.983.983 0 1 1 1.39 1.39l-6.035 6.035a.979.979 0 0 1-1.39 0z"/></g></g></g></svg>