<svg xmlns="http://www.w3.org/2000/svg" width="60" height="49.852" viewBox="0 0 60 49.852">
  <defs>
    <style>
      .cls-1 {
        fill: none;
      }

      .cls-2 {
        fill: #fff;
      }
    </style>
  </defs>
  <g id="logo" transform="translate(-152.867 -136.257)">
    <path id="Path_1" data-name="Path 1" class="cls-1" d="M430,153.482a5.084,5.084,0,0,1,1.173-.137,8.762,8.762,0,0,1,3.959,1.249,8.939,8.939,0,0,0,2.846,1.065,22.686,22.686,0,0,1-1.87-2.4l-.589-.829.655-.406a9.236,9.236,0,0,0,1.777-1.449,9.751,9.751,0,0,1-3.47-1.225,7.573,7.573,0,0,0-3.308-1.094,3.719,3.719,0,0,0-1.173.192v5.033Z" transform="translate(-243.455 -10.553)"/>
    <path id="Path_2" data-name="Path 2" class="cls-1" d="M208.847,278.46l.342-3.5,3.331-5.06-8.882-9.213,3.761-12.066L198.559,254l-3.762,7.44-6.048,2.525-2.489,6.474-8.284,12.41h23.037Z" transform="translate(-22.083 -98.472)"/>
    <path id="Path_3" data-name="Path 3" class="cls-2" d="M200.86,175.954l-4.509-12.392-5.145-5.619-4.7-9.8v-3.651a3.747,3.747,0,0,1,1.182-.194,7.623,7.623,0,0,1,3.331,1.1A8.812,8.812,0,0,0,195,146.652a5.185,5.185,0,0,0,1.457-.212l1.4-.409-1.164-.873a12.4,12.4,0,0,1-2.556-2.845,14.217,14.217,0,0,0,2.686-2.7l1.454-1.807-2.226.651a3.681,3.681,0,0,1-1.048.153,7.616,7.616,0,0,1-3.325-1.1,8.823,8.823,0,0,0-3.987-1.258,5.338,5.338,0,0,0-2.206.486l-.432.192v11.3l-9.477,5.774-3.73,7.379-6.18,2.579-2.693,7-10.105,15.139h60Zm-14.351-38.047a3.749,3.749,0,0,1,1.182-.193,7.626,7.626,0,0,1,3.331,1.1,9.82,9.82,0,0,0,3.494,1.234,9.3,9.3,0,0,1-1.789,1.459l-.66.409.593.835a22.846,22.846,0,0,0,1.883,2.416,9,9,0,0,1-2.865-1.072,8.822,8.822,0,0,0-3.987-1.258,5.119,5.119,0,0,0-1.182.137Zm.835,38.512L187,179.946l-7.887,4.424h-23.2l8.341-12.5,2.506-6.519,6.09-2.542,3.788-7.492,8.9-5.423-3.787,12.149,8.944,9.277Z"/>
  </g>
</svg>
