<svg xmlns="http://www.w3.org/2000/svg" width="57" height="57" viewBox="0 0 57 57"><g><g><g><g><path fill="#2f3506" d="M26.845 19.738c-5.745 0-10.418 4.673-10.418 10.417S21.1 40.573 26.845 40.573c5.744 0 10.417-4.674 10.417-10.418 0-2.488-.878-4.774-2.339-6.567l3.222-3.222a14.895 14.895 0 0 1 3.658 9.79c0 8.247-6.71 14.957-14.958 14.957-8.248 0-14.958-6.71-14.958-14.958 0-8.248 6.71-14.958 14.958-14.958 3.74 0 7.164 1.38 9.79 3.657l-3.223 3.223a10.368 10.368 0 0 0-6.567-2.339zm-.756 11.173a1.065 1.065 0 0 0 1.511 0l5.802-5.803a8.237 8.237 0 0 1 1.723 5.047c0 4.566-3.715 8.28-8.28 8.28-4.566 0-8.281-3.714-8.281-8.28 0-4.566 3.715-8.28 8.28-8.28 1.899 0 3.649.644 5.047 1.722L26.09 29.4a1.069 1.069 0 0 0 0 1.51zm20.86-1.824a1.068 1.068 0 0 0 0 2.137h1.505c-.542 11.081-9.46 19.999-20.54 20.54V50.26a1.068 1.068 0 0 0-2.138 0v1.505c-11.082-.54-20-9.459-20.54-20.54H6.74a1.068 1.068 0 0 0 0-2.137H5.235c.542-11.082 9.46-20 20.541-20.541v1.505a1.068 1.068 0 0 0 2.137 0V8.546a21.552 21.552 0 0 1 13.449 5.58l-3.215 3.216a17.023 17.023 0 0 0-11.303-4.282c-9.426 0-17.095 7.669-17.095 17.095 0 9.427 7.67 17.095 17.095 17.095 9.427 0 17.096-7.668 17.096-17.095 0-4.33-1.62-8.287-4.282-11.302l3.215-3.215a21.552 21.552 0 0 1 5.581 13.449zm2.459-25.65l.265 2.922c.047.514.454.92.968.968l2.922.265-3.785 3.785-3.74-.416-.415-3.74zm.645 10.12a1.069 1.069 0 0 0 .874-.306l5.76-5.76a1.068 1.068 0 0 0-.659-1.82l-4.307-.392-.392-4.307a1.068 1.068 0 0 0-1.82-.66l-5.76 5.762c-.23.23-.343.55-.307.873l.51 4.59-1.079 1.078a23.679 23.679 0 0 0-14.96-6.207V4.379a1.068 1.068 0 0 0-2.137 0v2.028c-12.26.545-22.134 10.42-22.68 22.68H1.069a1.068 1.068 0 0 0 0 2.137h2.029c.545 12.26 10.42 22.134 22.68 22.679v2.028a1.068 1.068 0 0 0 2.136 0v-2.028c12.26-.545 22.134-10.42 22.68-22.68h2.028a1.068 1.068 0 0 0 0-2.136h-2.029a23.68 23.68 0 0 0-6.207-14.961l1.079-1.079z"/></g></g></g></g></svg>