<svg xmlns="http://www.w3.org/2000/svg" width="50" height="50" viewBox="0 0 50 50"><g><g><g><g><g><path fill="#2f3506" d="M36.416 48.003H1.656V4.966h6.62v4.138c0 .457.371.828.828.828h8.277c.457 0 .827-.37.827-.828a.828.828 0 0 1 1.655 0c0 .457.371.828.828.828h8.277c.457 0 .827-.37.827-.828V4.966h6.621zM9.932 4.966H28.14v3.31h-6.763a2.483 2.483 0 0 0-4.683 0H9.932zm0-3.31H28.14V3.31H9.932zM29.795 3.31V.828A.828.828 0 0 0 28.968 0H9.104a.828.828 0 0 0-.828.828V3.31H.828A.828.828 0 0 0 0 4.138v44.693c0 .457.37.828.828.828h36.416c.457 0 .828-.37.828-.828V4.138a.828.828 0 0 0-.828-.827z"/></g></g></g><g><g><g><path fill="#2f3506" d="M8.276 16.553a1.655 1.655 0 1 1 0-3.31 1.655 1.655 0 0 1 0 3.31zm0-4.966a3.31 3.31 0 1 0 0 6.621 3.31 3.31 0 0 0 0-6.621z"/></g></g></g><g><g><g><path fill="#2f3506" d="M8.276 24.83a1.655 1.655 0 1 1 0-3.311 1.655 1.655 0 0 1 0 3.31zm0-4.967a3.31 3.31 0 1 0 0 6.622 3.31 3.31 0 0 0 0-6.622z"/></g></g></g><g><g><g><path fill="#2f3506" d="M32.278 12.415H20.691a.828.828 0 0 0 0 1.655h11.587a.828.828 0 0 0 0-1.655z"/></g></g></g><g><g><g><path fill="#2f3506" d="M17.38 12.415h-3.31a.828.828 0 0 0 0 1.655h3.31a.828.828 0 0 0 0-1.655z"/></g></g></g><g><g><g><path fill="#2f3506" d="M32.278 15.725h-6.621a.828.828 0 0 0 0 1.656h6.621a.828.828 0 0 0 0-1.656z"/></g></g></g><g><g><g><path fill="#2f3506" d="M22.346 15.725H14.07a.828.828 0 0 0 0 1.656h8.276a.828.828 0 0 0 0-1.656z"/></g></g></g><g><g><g><path fill="#2f3506" d="M32.278 20.691h-3.31a.828.828 0 0 0 0 1.655h3.31a.828.828 0 0 0 0-1.655z"/></g></g></g><g><g><g><path fill="#2f3506" d="M25.657 20.691H14.07a.828.828 0 0 0 0 1.655h11.587a.828.828 0 0 0 0-1.655z"/></g></g></g><g><g><g><path fill="#2f3506" d="M32.278 24.002h-9.104a.828.828 0 0 0 0 1.655h9.104a.828.828 0 0 0 0-1.655z"/></g></g></g><g><g><g><path fill="#2f3506" d="M19.863 24.002H14.07a.828.828 0 0 0 0 1.655h5.793a.828.828 0 0 0 0-1.655z"/></g></g></g><g><g><g><path fill="#2f3506" d="M41.382 3.31a1.655 1.655 0 1 1 3.31 0zm3.31 14.07h-3.31V4.967h3.31zm0 24.83h-3.31V19.036h3.31zm-1.654 3.943l-1.144-2.288h2.287zm3.31-42.842a3.31 3.31 0 0 0-6.621 0v39.727c0 .01.006.02.006.03.003.086.02.173.051.254.007.018.012.037.02.055.007.017.005.02.01.03L42.21 48.2v.632a.828.828 0 0 0 1.655 0v-.632l2.4-4.792c.005-.01.006-.02.011-.03.005-.01.012-.037.02-.055a.824.824 0 0 0 .05-.255c0-.01.006-.019.006-.03V5.119a2.483 2.483 0 0 1 1.651 2.33v7.45a.828.828 0 0 0 1.656 0v-7.45a4.146 4.146 0 0 0-3.31-4.055z"/></g></g></g><g><g><g><path fill="#2f3506" d="M13.242 36.416a.828.828 0 0 0-.585 1.413l5.58 5.581a7.449 7.449 0 1 1 1.71-10.733l-1.5 1.499 1.17 1.17 1.21-1.209c.337.72.555 1.49.645 2.28zm7.592 3.94zm-1.213-1.214l-1.17 1.17 1.495 1.495c-.14.18-.287.356-.444.524l-4.262-4.26h6.232a7.424 7.424 0 0 1-.638 2.284zm5.208-8.52h-2.483c-.22 0-.43.088-.585.243l-.635.636A9.104 9.104 0 1 0 6.992 42.98a9.104 9.104 0 0 0 13.037 1.134 9.084 9.084 0 0 0 1.083-1.134l.644.644c.157.156.37.243.59.241h2.483V42.21h-2.14l-.631-.632a9.03 9.03 0 0 0 .01-8.679l.621-.62h2.14z"/></g></g></g><g><g><g><path fill="#2f3506" d="M29.795 33.106a1.655 1.655 0 1 1 0-3.31 1.655 1.655 0 0 1 0 3.31zm0-4.966a3.31 3.31 0 1 0 0 6.621 3.31 3.31 0 0 0 0-6.621z"/></g></g></g><g><g><g><path fill="#2f3506" d="M29.795 44.693a1.655 1.655 0 1 1 0-3.31 1.655 1.655 0 0 1 0 3.31zm0-4.966a3.31 3.31 0 1 0 0 6.621 3.31 3.31 0 0 0 0-6.621z"/></g></g></g></g></g></svg>