<svg xmlns="http://www.w3.org/2000/svg" width="55" height="54" viewBox="0 0 55 54"><g><g><g><g><g><path fill="#2f3506" d="M32.727 31.01l-.379.205a.951.951 0 0 0-.356.34l-1.238 2.03h-.415v-7.18l4.455-4.456-1.338-1.338-4.733 4.732a.947.947 0 0 0-.277.67v7.572h-1.893v-7.573c0-.25-.1-.491-.277-.669l-4.733-4.732-1.339 1.338 4.456 4.455v7.18h-.415l-1.238-2.03a.951.951 0 0 0-.356-.34l-.379-.205a1.018 1.018 0 0 0-.093-.044 11.146 11.146 0 0 1-6.985-10.513c0-6.328 5.52-11.477 12.305-11.477 6.786 0 12.305 5.149 12.305 11.477a11.146 11.146 0 0 1-6.984 10.513 1.035 1.035 0 0 0-.093.044zm-1.441 6.361h-7.573a.947.947 0 0 1 0-1.893h7.573a.947.947 0 0 1 0 1.893zm0 3.786h-7.573a.947.947 0 0 1 0-1.893h7.573a.947.947 0 0 1 0 1.893zm2.3-8.46a13.008 13.008 0 0 0 8.112-12.245c0-7.373-6.37-13.37-14.199-13.37-7.828 0-14.198 5.997-14.198 13.37a13.008 13.008 0 0 0 8.112 12.245l.11.06.752 1.233a2.807 2.807 0 0 0-.663 4.328 2.827 2.827 0 0 0 2.101 4.732h7.573a2.827 2.827 0 0 0 2.1-4.732 2.807 2.807 0 0 0-.662-4.328l.752-1.233z"/></g></g></g><g><g><g><path fill="#2f3506" d="M12.877 11.715l-5.679-2.84.847-1.693 5.679 2.84z"/></g></g></g><g><g><g><path fill="#2f3506" d="M41.648 11.35l-.599-1.795 6.023-2.01.6 1.797z"/></g></g></g><g><g><g><path fill="#2f3506" d="M3.836 21.28v-1.893h5.68v1.893z"/></g></g></g><g><g><g><path fill="#2f3506" d="M45.484 21.28v-1.893h5.679v1.893z"/></g></g></g><g><g><g><path fill="#2f3506" d="M8.045 35.377L7.2 33.684l5.678-2.84.847 1.693z"/></g></g></g><g><g><g><path fill="#2f3506" d="M46.953 35.38l-5.68-2.84.847-1.692 5.68 2.839z"/></g></g></g><g><g><g><path fill="#2f3506" d="M26.553 5.189V.456h1.893v4.733z"/></g></g></g><g><g><g><path fill="#2f3506" d="M54.949 44.943V43.05c-12.349 0-25.471 2.985-25.556 8.52h-3.787c-.085-5.535-13.207-8.52-25.556-8.52v1.893c13.866 0 23.55 3.48 23.658 6.626H.05v1.893h54.899V51.57H31.291c.108-3.145 9.791-6.626 23.658-6.626z"/></g></g></g><g><g><g><path fill="#2f3506" d="M17.987 50.623L0 49.676l.1-1.89 17.987.947z"/></g></g></g><g><g><g><path fill="#2f3506" d="M37.013 50.623l-.1-1.89 17.987-.95.1 1.891z"/></g></g></g></g></g></svg>