<svg xmlns="http://www.w3.org/2000/svg" width="49" height="50" viewBox="0 0 49 50"><g><g><g><g><g><path fill="#2f3506" d="M43.751 46.947l-.814-.07V25.441a.733.733 0 1 0-1.468 0v23.13H6.944V6.222H41.47v15.796a.733.733 0 1 0 1.467 0V5.488a.733.733 0 0 0-.734-.733h-4.541l-.106-.841 9.8.837zM35.81 1.774l.374 2.98H12.096zm-22.854.039l6.42.548-6.537.822zM5.477 37.294L1.553 6.08l3.924-.493zM48.71 3.61a.733.733 0 0 0-.499-.259L37.37 2.425 37.173.863a.734.734 0 0 0-.82-.637L26.296 1.491a.73.73 0 0 0-.123-.022L12.35.29a.74.74 0 0 0-.793.668L11.35 3.37.642 4.716a.741.741 0 0 0-.636.82L5.47 49.01c.025.198-.017.389.064.58a.74.74 0 0 0 .676.449h35.992a.733.733 0 0 0 .734-.734v-.955l1.42.121a.74.74 0 0 0 .794-.668l3.728-43.658a.733.733 0 0 0-.17-.535z"/></g></g></g><g><g><g><path fill="#2f3506" d="M35.182 19.621h-8.677v-8.676a9.383 9.383 0 0 1 4.788 1.761l-.654.982a.74.74 0 0 0 .137.968.74.74 0 0 0 1.083-.154l.56-.84a9.413 9.413 0 0 1 2.763 5.96zm-.803-10.954a.733.733 0 0 0-.61.327l-1.661 2.49a10.846 10.846 0 0 0-6.336-2.035.733.733 0 0 0-.734.734v10.172c0 .405.329.733.734.733h10.172a.733.733 0 0 0 .733-.733c0-3.123-1.32-5.944-3.43-7.934l1.524-2.287h3.52a.733.733 0 1 0 0-1.467z"/></g></g></g><g><g><g><path fill="#2f3506" d="M27.959 27.008a.733.733 0 1 0-1.244.777l1.884 3.015a9.394 9.394 0 0 1-5.957 2.123c-5.204 0-9.438-4.234-9.438-9.438 0-4.958 3.842-9.035 8.704-9.41v9.41c0 .405.329.733.734.733h9.41a9.402 9.402 0 0 1-2.37 5.547zm10.332 5.915h-6.636l-1.169-1.871a10.868 10.868 0 0 0 3.061-7.568.733.733 0 0 0-.733-.733h-9.439v-9.438a.733.733 0 0 0-.733-.734c-6.013 0-10.906 4.892-10.906 10.905 0 6.014 4.893 10.906 10.906 10.906 2.542 0 4.883-.874 6.74-2.338l1.245 1.993c.134.215.369.345.622.345h7.042a.733.733 0 1 0 0-1.467z"/></g></g></g><g><g><g><path fill="#2f3506" d="M16.382 36.835h-6.26a.734.734 0 1 0 0 1.467h6.26a.733.733 0 1 0 0-1.467z"/></g></g></g><g><g><g><path fill="#2f3506" d="M25.772 36.835h-6.26a.733.733 0 1 0 0 1.467h6.26a.733.733 0 1 0 0-1.467z"/></g></g></g><g><g><g><path fill="#2f3506" d="M20.295 40.747H10.123a.734.734 0 1 0 0 1.467h10.172a.733.733 0 1 0 0-1.467z"/></g></g></g><g><g><g><path fill="#2f3506" d="M25.772 40.747h-2.348a.734.734 0 1 0 0 1.467h2.348a.733.733 0 1 0 0-1.467z"/></g></g></g><g><g><g><path fill="#2f3506" d="M13.253 44.66h-3.13a.734.734 0 1 0 0 1.466h3.13a.733.733 0 1 0 0-1.467z"/></g></g></g><g><g><g><path fill="#2f3506" d="M25.772 44.66h-9.39a.734.734 0 1 0 0 1.466h9.39a.733.733 0 1 0 0-1.467z"/></g></g></g></g></g></svg>