<svg xmlns="http://www.w3.org/2000/svg" width="56" height="56" viewBox="0 0 56 56"><g><g><g><g><g><path fill="#2f3506" d="M23.276 50.55l-4.1-4.099 1.179-1.065 4.092 4.093zm-1.828 1.677a4.437 4.437 0 0 1-3.153 1.305c-1.19 0-2.31-.464-3.153-1.306L3.089 40.173a4.43 4.43 0 0 1-1.306-3.152 4.43 4.43 0 0 1 1.306-3.154l.49-.49 4.09 4.09-.032.032a2.68 2.68 0 0 0 0 3.784l6.395 6.395a2.662 2.662 0 0 0 1.893.784c.715 0 1.387-.278 1.86-.753l.066-.06 4.109 4.11zM5.81 31.147l4.09 4.09-.969.968-4.09-4.09zm8.175 11.403a4.46 4.46 0 0 1 3.433-2.978l6.234-1.132 3.868 3.868 3.867-3.868 6.233 1.133a4.46 4.46 0 0 1 3.432 2.978l1.284 3.846H23.889l-3.474-3.473-3.86 3.491a.91.91 0 0 1-1.26 0l-1.948-1.947zm16.21-5.482v.042l-2.675 2.675-2.676-2.675v-.042a8.906 8.906 0 0 0 5.351 0zm-9.81-8.507v-4.493a11.563 11.563 0 0 0 7.135-3.17 11.558 11.558 0 0 0 7.134 3.17v4.493a7.08 7.08 0 0 1-.965 3.567h-6.17v1.784h4.704a7.097 7.097 0 0 1-4.703 1.783c-3.934 0-7.135-3.2-7.135-7.134zM18.6 22.318v1.018a3.538 3.538 0 0 0-.892.37v-3.172c0-5.409 4.402-9.81 9.81-9.81 5.41 0 9.81 4.401 9.81 9.81v3.171a3.505 3.505 0 0 0-.891-.369v-1.018h-.892a9.812 9.812 0 0 1-6.982-2.892L27.52 18.38l-1.045 1.045a9.812 9.812 0 0 1-6.982 2.892zm0 5.995a1.778 1.778 0 0 1-.892-1.536c0-.657.362-1.226.892-1.536zm17.837-3.072c.53.31.892.879.892 1.536s-.361 1.226-.892 1.536zm.892 5.995c0 .492-.4.892-.892.892h-.75c.259-.59.455-1.211.581-1.858.382-.08.734-.23 1.06-.422zm7.48 16.945l-2.065-6.195a6.243 6.243 0 0 0-4.806-4.167l-5.96-1.085v-.462a8.976 8.976 0 0 0 2.658-2.36h1.801c1.475 0 2.676-1.2 2.676-2.676V20.534c0-6.393-5.202-11.594-11.594-11.594-6.393 0-11.594 5.201-11.594 11.594v6.243a3.573 3.573 0 0 0 2.844 3.493 8.935 8.935 0 0 0 4.29 6.002v.462L17.1 37.82a6.242 6.242 0 0 0-4.806 4.167l-.357 1.072L8.9 40.02a.894.894 0 0 1 0-1.262l3.523-3.522-6.613-6.612-3.98 3.981A6.202 6.202 0 0 0 0 37.02a6.2 6.2 0 0 0 1.828 4.414l12.053 12.053a6.203 6.203 0 0 0 4.415 1.829c1.668 0 3.235-.65 4.386-1.803l4.344-3.98-1.354-1.352z"/></g></g></g><g><g><g><path fill="#2f3506" d="M53.405 9.81c0 .492-.4.892-.892.892H49.58l-5.664 3.54.608-3.54h-4.498a.893.893 0 0 1-.892-.892V2.676c0-.492.4-.892.892-.892h12.486c.491 0 .892.4.892.892zM52.513 0H40.027a2.679 2.679 0 0 0-2.675 2.676V9.81c0 1.475 1.2 2.676 2.675 2.676h2.382l-.922 5.378 8.606-5.378h2.42c1.475 0 2.675-1.2 2.675-2.676V2.676C55.188 1.2 53.988 0 52.513 0z"/></g></g></g><g><g><g><path fill="#2f3506" d="M40.919 5.351V3.567h10.702v1.784z"/></g></g></g><g><g><g><path fill="#2f3506" d="M40.919 8.918V7.135h7.135v1.783z"/></g></g></g><g><g><g><path fill="#2f3506" d="M49.837 8.918V7.135h1.784v1.783z"/></g></g></g><g><g><g><path fill="#2f3506" d="M27.52 2.676c-11.653 0-21.69 8.06-24.3 19.303l-1.69-2.817L0 20.08l3.135 5.223 5.223-3.135-.917-1.529-2.417 1.45C7.55 11.804 16.8 4.46 27.52 4.46c2.342 0 4.654.348 6.87 1.035l.528-1.704a24.955 24.955 0 0 0-7.398-1.114z"/></g></g></g><g><g><g><path fill="#2f3506" d="M54.755 19.76l-5.224-3.135-3.133 5.224 1.53.918 1.56-2.601a23.093 23.093 0 0 1 1.241 7.494 23.242 23.242 0 0 1-5.172 14.6l1.386 1.123a25.027 25.027 0 0 0 5.57-15.723c0-2.728-.44-5.392-1.297-7.943l2.621 1.572z"/></g></g></g></g></g></svg>