<svg xmlns="http://www.w3.org/2000/svg" width="50.083" height="59.067" viewBox="0 0 50.083 59.067"><defs><style>.a{fill:#2f3506;}</style></defs><g transform="translate(0)"><path class="a" d="M171.378,229.89H137.461A3.465,3.465,0,0,0,134,233.351v11.767a1.154,1.154,0,1,0,2.307,0V233.351a1.155,1.155,0,0,1,1.154-1.154h33.917a1.155,1.155,0,0,1,1.154,1.154v42.916a1.155,1.155,0,0,1-1.154,1.154H137.461a1.155,1.155,0,0,1-1.154-1.154V254.847a1.154,1.154,0,1,0-2.307,0v21.419a3.465,3.465,0,0,0,3.461,3.461h33.917a3.465,3.465,0,0,0,3.461-3.461V233.351a3.465,3.465,0,0,0-3.461-3.461Zm0,0" transform="translate(-134 -229.89)"/><path class="a" d="M135.969,355.312a1.154,1.154,0,1,0,.338.816,1.161,1.161,0,0,0-.338-.816Zm0,0" transform="translate(-134 -335.735)"/><path class="a" d="M166.013,569.275a1.154,1.154,0,1,0,.338.816,1.161,1.161,0,0,0-.338-.816Zm0,0" transform="translate(-159.422 -516.785)"/><path class="a" d="M229.118,259.937a1.154,1.154,0,0,0-1.154,1.154v45.223a1.155,1.155,0,0,1-1.154,1.154H195.2a1.154,1.154,0,0,0,0,2.307h31.61a3.465,3.465,0,0,0,3.461-3.461V261.091a1.154,1.154,0,0,0-1.154-1.154Zm0,0" transform="translate(-184.811 -255.315)"/><path class="a" d="M233.779,289.89a1.154,1.154,0,0,0-1.154,1.154v45.223a1.155,1.155,0,0,1-1.154,1.154H195.248a1.154,1.154,0,1,0,0,2.307h36.225a3.465,3.465,0,0,0,3.461-3.461V291.044a1.154,1.154,0,0,0-1.154-1.154Zm0,0" transform="translate(-184.85 -280.661)"/><path class="a" d="M188.229,285.39H177.154A1.154,1.154,0,0,0,176,286.544v11.075a1.154,1.154,0,0,0,1.154,1.154h11.075a1.154,1.154,0,0,0,1.154-1.154V286.544a1.154,1.154,0,0,0-1.154-1.154Zm-1.154,11.075h-8.768V287.7h8.768Zm0,0" transform="translate(-169.54 -276.853)"/><path class="a" d="M186.842,404.583a1.154,1.154,0,0,0-1.631,0l-3.067,3.067-1.426-1.426a1.154,1.154,0,0,0-1.632,1.631l2.242,2.242a1.154,1.154,0,0,0,1.632,0l3.882-3.883a1.153,1.153,0,0,0,0-1.631Zm0,0" transform="translate(-171.865 -377.426)"/><path class="a" d="M273.863,416.64H260.4a1.154,1.154,0,1,0,0,2.307h13.459a1.154,1.154,0,0,0,0-2.307Zm0,0" transform="translate(-239.984 -387.914)"/><path class="a" d="M299.229,285.39h-8.076a1.154,1.154,0,1,0,0,2.307h8.076a1.154,1.154,0,0,0,0-2.307Zm0,0" transform="translate(-266.004 -276.853)"/><path class="a" d="M299.229,321.39h-8.076a1.154,1.154,0,1,0,0,2.307h8.076a1.154,1.154,0,0,0,0-2.307Zm0,0" transform="translate(-266.004 -307.315)"/><path class="a" d="M299.229,357.39h-8.076a1.154,1.154,0,0,0,0,2.307h8.076a1.154,1.154,0,0,0,0-2.307Zm0,0" transform="translate(-266.004 -337.778)"/><path class="a" d="M186.842,461.858a1.153,1.153,0,0,0-1.631,0l-3.067,3.067-1.426-1.427a1.154,1.154,0,1,0-1.632,1.632l2.242,2.241a1.153,1.153,0,0,0,1.632,0l3.882-3.882a1.153,1.153,0,0,0,0-1.631Zm0,0" transform="translate(-171.865 -425.891)"/><path class="a" d="M273.863,473.64H260.4a1.154,1.154,0,1,0,0,2.307h13.459a1.154,1.154,0,0,0,0-2.307Zm0,0" transform="translate(-239.984 -436.146)"/></g></svg>