<svg xmlns="http://www.w3.org/2000/svg" width="50.305" height="56.407" viewBox="0 0 50.305 56.407"><defs><style>.a{fill:#2f3506;}</style></defs><g transform="translate(0)"><path class="a" d="M164.807,279.987c4.754-7.885,10.763-18.971,10.763-24.669a17.429,17.429,0,1,0-34.857,0c0,5.7,6.009,16.783,10.763,24.669-5.641.426-18.476,1.957-18.476,7.034,0,5,13.032,7.275,25.153,7.275s25.153-2.28,25.153-7.275c-.011-5.077-12.858-6.608-18.5-7.034Zm-21.688-24.669a15.028,15.028,0,1,1,30.056,0c0,7.241-11.534,25.406-15.034,30.747-3.5-5.341-15.023-23.506-15.023-30.747Zm15.023,36.572c-14.723,0-22.747-3.223-22.747-4.881,0-1.278,5.3-4.029,17.5-4.731,2.291,3.7,4.029,6.309,4.259,6.619a1.228,1.228,0,0,0,1.991,0c.242-.288,1.969-2.924,4.259-6.619,12.2.7,17.5,3.442,17.5,4.731-.011,1.669-8.035,4.881-22.758,4.881Zm0,0" transform="translate(-133 -237.89)"/><path class="a" d="M262.548,309.6a7.586,7.586,0,1,0-7.586,7.586,7.586,7.586,0,0,0,7.586-7.586Zm-12.778,0a5.192,5.192,0,1,1,5.192,5.192,5.192,5.192,0,0,1-5.192-5.192Zm0,0" transform="translate(-229.82 -292.173)"/></g></svg>