<svg xmlns="http://www.w3.org/2000/svg" width="55.086" height="55.086" viewBox="0 0 55.086 55.086"><defs><style>.a{fill:#2f3506;}</style></defs><g transform="translate(0)"><path class="a" d="M441.473,306.691a3.672,3.672,0,1,0,3.673,3.672,3.676,3.676,0,0,0-3.673-3.672Zm0,5.508a1.836,1.836,0,1,1,1.836-1.836,1.837,1.837,0,0,1-1.836,1.836Zm0,0" transform="translate(-390.06 -295.674)"/><path class="a" d="M108.673,517.89a3.672,3.672,0,1,0,3.672,3.673,3.676,3.676,0,0,0-3.672-3.673Zm0,5.508a1.836,1.836,0,1,1,1.836-1.836,1.837,1.837,0,0,1-1.836,1.836Zm0,0" transform="translate(-105 -476.576)"/><path class="a" d="M395.835,291.4l-7.921-3.824a.918.918,0,0,0-.8,1.654l7.921,3.824a.918.918,0,0,0,.8-1.654Zm0,0" transform="translate(-346.201 -279.222)"/><path class="a" d="M371.071,562.691a3.672,3.672,0,1,0,3.673,3.672,3.676,3.676,0,0,0-3.673-3.672Zm0,5.508a1.836,1.836,0,1,1,1.836-1.836,1.838,1.838,0,0,1-1.836,1.836Zm0,0" transform="translate(-329.756 -514.95)"/><path class="a" d="M325.434,547.4l-7.92-3.824a.918.918,0,1,0-.8,1.654l7.92,3.824a.918.918,0,1,0,.8-1.654Zm0,0" transform="translate(-285.899 -498.497)"/><path class="a" d="M275.071,402.691a3.672,3.672,0,1,0,3.673,3.672,3.676,3.676,0,0,0-3.673-3.672Zm0,5.508a1.836,1.836,0,1,1,1.836-1.836,1.838,1.838,0,0,1-1.836,1.836Zm0,0" transform="translate(-247.528 -377.902)"/><path class="a" d="M240.566,382.03l-6.084-4.742a.918.918,0,0,0-1.129,1.448l6.084,4.742a.919.919,0,1,0,1.13-1.449Zm0,0" transform="translate(-214.636 -355.978)"/><path class="a" d="M351.9,396.288a10.1,10.1,0,1,0,10.1,10.1,10.111,10.111,0,0,0-10.1-10.1Zm0,18.362a8.263,8.263,0,1,1,8.263-8.262,8.271,8.271,0,0,1-8.263,8.262Zm0,0" transform="translate(-307.831 -372.418)"/><path class="a" d="M390.274,421.89a3.672,3.672,0,1,0,3.673,3.673,3.676,3.676,0,0,0-3.673-3.673Zm0,5.508a1.836,1.836,0,1,1,1.836-1.836,1.838,1.838,0,0,1-1.836,1.836Zm0,0" transform="translate(-346.205 -394.347)"/><path class="a" d="M381.973,485.89h-5.327a2.811,2.811,0,0,0-2.845,2.768v2.42a.919.919,0,0,0,.458.795,10.048,10.048,0,0,0,10.1,0,.917.917,0,0,0,.458-.794v-2.42a2.811,2.811,0,0,0-2.845-2.769Zm1.009,4.641a8.325,8.325,0,0,1-7.345,0v-1.872a.974.974,0,0,1,1.009-.932h5.327a.974.974,0,0,1,1.009.932Zm0,0" transform="translate(-335.241 -449.166)"/><path class="a" d="M198.3,473.089a10.1,10.1,0,1,0,10.1,10.1,10.112,10.112,0,0,0-10.1-10.1Zm0,18.362a8.263,8.263,0,1,1,8.262-8.262,8.272,8.272,0,0,1-8.262,8.262Zm0,0" transform="translate(-176.264 -438.201)"/><path class="a" d="M236.673,498.691a3.672,3.672,0,1,0,3.672,3.672,3.676,3.676,0,0,0-3.672-3.672Zm0,5.508a1.836,1.836,0,1,1,1.836-1.836,1.838,1.838,0,0,1-1.836,1.836Zm0,0" transform="translate(-214.638 -460.131)"/><path class="a" d="M228.371,562.691h-5.327a2.811,2.811,0,0,0-2.846,2.768v2.42a.918.918,0,0,0,.458.8,10.046,10.046,0,0,0,10.1,0,.916.916,0,0,0,.458-.794v-2.42a2.811,2.811,0,0,0-2.845-2.769Zm1.009,4.641a8.326,8.326,0,0,1-7.345,0V565.46a.974.974,0,0,1,1.009-.932h5.327a.974.974,0,0,1,1.009.932Zm0,0" transform="translate(-203.673 -514.95)"/><path class="a" d="M115.1,313.089a10.1,10.1,0,1,0,10.1,10.1,10.111,10.111,0,0,0-10.1-10.1Zm0,18.362a8.263,8.263,0,1,1,8.263-8.262,8.271,8.271,0,0,1-8.263,8.262Zm0,0" transform="translate(-105 -301.154)"/><path class="a" d="M153.473,338.691a3.672,3.672,0,1,0,3.673,3.672,3.676,3.676,0,0,0-3.673-3.672Zm0,5.508a1.836,1.836,0,1,1,1.836-1.836,1.837,1.837,0,0,1-1.836,1.836Zm0,0" transform="translate(-143.374 -323.083)"/><path class="a" d="M145.172,402.691h-5.326A2.811,2.811,0,0,0,137,405.459v2.42a.918.918,0,0,0,.458.8,10.047,10.047,0,0,0,10.1,0,.916.916,0,0,0,.458-.794v-2.42a2.811,2.811,0,0,0-2.846-2.769Zm1.009,4.641a8.326,8.326,0,0,1-7.345,0V405.46a.974.974,0,0,1,1.009-.932h5.327a.974.974,0,0,1,1.009.932Zm0,0" transform="translate(-132.41 -377.902)"/><path class="a" d="M268.7,229.89a10.1,10.1,0,1,0,10.1,10.1,10.111,10.111,0,0,0-10.1-10.1Zm0,18.362a8.263,8.263,0,1,1,8.263-8.263,8.272,8.272,0,0,1-8.263,8.263Zm0,0" transform="translate(-236.567 -229.89)"/><path class="a" d="M307.074,255.492a3.672,3.672,0,1,0,3.673,3.672,3.676,3.676,0,0,0-3.673-3.672Zm0,5.508a1.836,1.836,0,1,1,1.836-1.836A1.838,1.838,0,0,1,307.074,261Zm0,0" transform="translate(-274.941 -251.819)"/><path class="a" d="M298.774,319.492h-5.327a2.81,2.81,0,0,0-2.845,2.768v2.42a.918.918,0,0,0,.458.8,10.047,10.047,0,0,0,10.1,0,.917.917,0,0,0,.458-.794v-2.42a2.81,2.81,0,0,0-2.845-2.769Zm1.009,4.641a8.328,8.328,0,0,1-7.345,0v-1.872a.975.975,0,0,1,1.009-.932h5.327a.974.974,0,0,1,1.009.932v1.872Zm0,0" transform="translate(-263.977 -306.638)"/><path class="a" d="M222.231,294.211a.919.919,0,0,0-1.294-.1l-6.362,5.444a.918.918,0,1,0,1.193,1.395l6.362-5.444a.918.918,0,0,0,.1-1.294Zm0,0" transform="translate(-198.58 -284.709)"/><path class="a" d="M368.16,352.809l-5.508-7.345a.918.918,0,0,0-1.469,1.1l5.509,7.345a.918.918,0,0,0,1.469-1.1Zm0,0" transform="translate(-324.275 -328.57)"/><path class="a" d="M317.9,485.662a.919.919,0,0,0-1.286-.184l-5.128,3.846a.918.918,0,1,0,1.1,1.468l5.128-3.846a.916.916,0,0,0,.184-1.284Zm0,0" transform="translate(-281.555 -448.657)"/><path class="a" d="M150.743,537.089h-6.427a.918.918,0,1,0,0,1.836h6.426a.918.918,0,0,0,0-1.836Zm0,0" transform="translate(-137.89 -493.02)"/><path class="a" d="M153.473,229.89a3.672,3.672,0,1,0,3.673,3.673,3.676,3.676,0,0,0-3.673-3.673Zm0,5.508a1.836,1.836,0,1,1,1.836-1.836,1.837,1.837,0,0,1-1.836,1.836Zm0,0" transform="translate(-143.374 -229.89)"/><path class="a" d="M169.918,268.288a.918.918,0,0,0-.918.919v6.426a.918.918,0,1,0,1.836,0v-6.426a.918.918,0,0,0-.919-.919Zm0,0" transform="translate(-159.819 -262.78)"/></g></svg>