<svg xmlns="http://www.w3.org/2000/svg" width="187" height="54.006" viewBox="0 0 187 54.006">
  <g id="logo" transform="translate(-70 -40)">
    <g id="logo-2" data-name="logo" transform="translate(-82.867 -96.257)">
      <path id="Path_1" data-name="Path 1" d="M430,153.917a5.508,5.508,0,0,1,1.271-.148,9.493,9.493,0,0,1,4.289,1.353,9.684,9.684,0,0,0,3.083,1.154,24.586,24.586,0,0,1-2.026-2.6l-.638-.9.71-.44a10.006,10.006,0,0,0,1.925-1.57,10.563,10.563,0,0,1-3.759-1.327,8.2,8.2,0,0,0-3.584-1.185,4.029,4.029,0,0,0-1.271.208v5.452Z" transform="translate(-240.649 -10.433)" fill="none"/>
      <path id="Path_2" data-name="Path 2" d="M211.419,280.947l.371-3.794,3.608-5.482-9.622-9.981,4.074-13.071-9.576,5.835-4.075,8.06-6.552,2.735-2.7,7.014-8.974,13.444h24.956Z" transform="translate(-21.831 -97.315)" fill="none"/>
      <path id="Path_3" data-name="Path 3" d="M204.86,179.262l-4.885-13.425L194.4,159.75l-5.089-10.621v-3.955a4.059,4.059,0,0,1,1.28-.21,8.258,8.258,0,0,1,3.608,1.194,9.547,9.547,0,0,0,4.313,1.361,5.618,5.618,0,0,0,1.579-.229l1.513-.443-1.261-.946a13.439,13.439,0,0,1-2.769-3.082,15.4,15.4,0,0,0,2.91-2.921l1.575-1.957-2.411.705a3.988,3.988,0,0,1-1.135.165,8.251,8.251,0,0,1-3.6-1.192,9.558,9.558,0,0,0-4.319-1.363,5.783,5.783,0,0,0-2.39.527l-.468.208v12.239l-10.266,6.255-4.041,7.993-6.695,2.794-2.917,7.588-10.948,16.4h65Zm-15.547-41.218a4.062,4.062,0,0,1,1.28-.209,8.262,8.262,0,0,1,3.609,1.194,10.638,10.638,0,0,0,3.785,1.337,10.08,10.08,0,0,1-1.938,1.581l-.715.443.642.9a24.753,24.753,0,0,0,2.04,2.617,9.755,9.755,0,0,1-3.1-1.162,9.557,9.557,0,0,0-4.319-1.363,5.546,5.546,0,0,0-1.28.149Zm.9,41.721-.373,3.821-8.544,4.792H156.169l9.036-13.537,2.715-7.063,6.6-2.754,4.1-8.116,9.642-5.875-4.1,13.162,9.689,10.05Z" fill="#fff"/>
    </g>
    <text id="flaghike" transform="translate(206 79)" fill="#fff" font-size="30" font-family="SegoeUI-Light, Segoe UI" font-weight="300"><tspan x="-50.449" y="0">flag</tspan><tspan y="0" font-family="SegoeUI, Segoe UI" font-weight="400">hike</tspan></text>
  </g>
</svg>
