<svg xmlns="http://www.w3.org/2000/svg" width="51" height="60" viewBox="0 0 51 60"><g><g><g><path fill="#2f3506" d="M38.253.744H4.336A3.465 3.465 0 0 0 .875 4.205v11.768a1.154 1.154 0 0 0 2.307 0V4.205c0-.636.517-1.153 1.154-1.153h33.917c.636 0 1.154.517 1.154 1.153v42.916c0 .637-.518 1.154-1.154 1.154H4.336a1.155 1.155 0 0 1-1.154-1.154v-21.42a1.154 1.154 0 0 0-2.307 0v21.42a3.465 3.465 0 0 0 3.46 3.461h33.918a3.465 3.465 0 0 0 3.461-3.46V4.204a3.465 3.465 0 0 0-3.46-3.46z"/></g><g><path fill="#2f3506" d="M2.844 20.322a1.16 1.16 0 0 0-1.631 0 1.168 1.168 0 0 0-.338.816c0 .304.123.6.338.816.215.215.512.339.816.339.303 0 .6-.124.815-.339.214-.214.338-.512.338-.816 0-.304-.124-.6-.338-.816z"/></g><g><path fill="#2f3506" d="M7.466 53.234a1.161 1.161 0 0 0-.816-.337c-.304 0-.601.123-.816.338a1.164 1.164 0 0 0-.338.815 1.157 1.157 0 0 0 1.154 1.154 1.157 1.157 0 0 0 1.153-1.154c0-.303-.123-.6-.337-.815z"/></g><g><path fill="#2f3506" d="M45.182 5.366c-.637 0-1.153.517-1.153 1.154v45.223c0 .637-.518 1.154-1.154 1.154h-31.61a1.154 1.154 0 0 0 0 2.307h31.61a3.465 3.465 0 0 0 3.46-3.46V6.52c0-.637-.516-1.154-1.153-1.154z"/></g><g><path fill="#2f3506" d="M49.804 9.974c-.637 0-1.154.516-1.154 1.153v45.224c0 .636-.517 1.153-1.153 1.153H11.272a1.154 1.154 0 0 0 0 2.308h36.225a3.465 3.465 0 0 0 3.46-3.461V11.127c0-.637-.516-1.153-1.153-1.153z"/></g><g><path fill="#2f3506" d="M18.41 20.357H9.643v-8.768h8.767zM19.564 9.28H8.489c-.637 0-1.154.517-1.154 1.154V21.51c0 .637.517 1.154 1.154 1.154h11.075c.637 0 1.154-.517 1.154-1.154V10.435c0-.637-.517-1.154-1.154-1.154z"/></g><g><path fill="#2f3506" d="M15.852 27.902c-.45-.45-1.18-.451-1.631 0l-3.067 3.066-1.426-1.425a1.154 1.154 0 0 0-1.632 1.63l2.242 2.243a1.154 1.154 0 0 0 1.632 0l3.882-3.883c.45-.45.45-1.18 0-1.631z"/></g><g><path fill="#2f3506" d="M34.754 29.47h-13.46a1.154 1.154 0 0 0 0 2.308h13.46a1.154 1.154 0 0 0 0-2.308z"/></g><g><path fill="#2f3506" d="M34.1 9.281h-8.076a1.154 1.154 0 0 0 0 2.308H34.1a1.154 1.154 0 0 0 0-2.308z"/></g><g><path fill="#2f3506" d="M34.1 14.819h-8.076a1.154 1.154 0 0 0 0 2.307H34.1a1.154 1.154 0 0 0 0-2.307z"/></g><g><path fill="#2f3506" d="M34.1 20.357h-8.076a1.154 1.154 0 0 0 0 2.307H34.1a1.154 1.154 0 0 0 0-2.307z"/></g><g><path fill="#2f3506" d="M15.852 36.712c-.45-.45-1.18-.45-1.631 0l-3.067 3.067-1.426-1.427a1.155 1.155 0 0 0-1.632 1.632l2.242 2.241a1.155 1.155 0 0 0 1.632 0l3.882-3.882c.45-.45.45-1.181 0-1.631z"/></g><g><path fill="#2f3506" d="M34.754 38.238h-13.46a1.154 1.154 0 0 0 0 2.308h13.46a1.154 1.154 0 0 0 0-2.308z"/></g></g></g></svg>