<svg xmlns="http://www.w3.org/2000/svg" width="52" height="57" viewBox="0 0 52 57"><g><g><g><path fill="#2f3506" d="M25.99 54.043c-14.724 0-22.747-3.223-22.747-4.88 0-1.278 5.295-4.03 17.498-4.732 2.29 3.695 4.029 6.309 4.259 6.62.31.414 1.22.91 1.99 0 .243-.288 1.97-2.925 4.26-6.62 12.202.702 17.498 3.442 17.498 4.731-.012 1.67-8.035 4.881-22.758 4.881zM10.967 17.472c0-8.289 6.746-15.034 15.023-15.034 8.288 0 15.034 6.745 15.034 15.034 0 7.24-11.535 25.405-15.034 30.747-3.5-5.342-15.023-23.506-15.023-30.747zM32.655 42.14c4.754-7.885 10.763-18.97 10.763-24.668C43.418 7.859 35.602.043 25.99.043 16.377.043 8.56 7.859 8.56 17.472c0 5.698 6.01 16.783 10.763 24.668-5.64.427-18.476 1.957-18.476 7.035 0 4.995 13.032 7.275 25.153 7.275 12.11 0 25.153-2.28 25.153-7.275-.012-5.078-12.858-6.608-18.499-7.035z"/></g><g><path fill="#2f3506" d="M20.798 17.472a5.192 5.192 0 1 1 10.385.001 5.192 5.192 0 0 1-10.385-.001zm12.778 0a7.586 7.586 0 0 0-7.586-7.587 7.586 7.586 0 0 0-7.587 7.587 7.586 7.586 0 0 0 7.587 7.586 7.586 7.586 0 0 0 7.586-7.586z"/></g></g></g></svg>