<svg xmlns="http://www.w3.org/2000/svg" width="55" height="55" viewBox="0 0 55 55"><g><g><g><path fill="#2f3506" d="M51.405 16.44a1.837 1.837 0 0 1 0-3.673c1.014 0 1.837.824 1.837 1.836a1.838 1.838 0 0 1-1.837 1.837zm0-5.509a3.676 3.676 0 0 0-3.672 3.672 3.676 3.676 0 0 0 3.672 3.673 3.676 3.676 0 0 0 3.673-3.673 3.676 3.676 0 0 0-3.673-3.672z"/></g><g><path fill="#2f3506" d="M3.665 46.737A1.837 1.837 0 0 1 1.829 44.9c0-1.013.823-1.836 1.836-1.836 1.012 0 1.836.823 1.836 1.836a1.837 1.837 0 0 1-1.836 1.836zm0-5.508A3.676 3.676 0 0 0-.008 44.9a3.676 3.676 0 0 0 3.673 3.672 3.676 3.676 0 0 0 3.672-3.672 3.676 3.676 0 0 0-3.672-3.672z"/></g><g><path fill="#2f3506" d="M49.626 12.092l-7.921-3.824a.917.917 0 1 0-.798 1.654l7.92 3.823a.916.916 0 0 0 1.226-.428.918.918 0 0 0-.427-1.225z"/></g><g><path fill="#2f3506" d="M41.307 53.164a1.838 1.838 0 0 1-1.837-1.837 1.838 1.838 0 0 1 3.673 0 1.838 1.838 0 0 1-1.836 1.837zm0-5.509a3.676 3.676 0 0 0-3.673 3.672A3.677 3.677 0 0 0 41.307 55a3.676 3.676 0 0 0 3.672-3.673 3.676 3.676 0 0 0-3.672-3.672z"/></g><g><path fill="#2f3506" d="M39.526 48.816l-7.92-3.824a.917.917 0 1 0-.798 1.654l7.92 3.823a.916.916 0 0 0 1.226-.428.918.918 0 0 0-.428-1.225z"/></g><g><path fill="#2f3506" d="M27.535 30.211a1.838 1.838 0 0 1-1.836-1.836c0-1.013.824-1.836 1.836-1.836 1.013 0 1.837.823 1.837 1.836a1.838 1.838 0 0 1-1.837 1.836zm0-5.508a3.676 3.676 0 0 0-3.673 3.672 3.676 3.676 0 0 0 3.673 3.672 3.676 3.676 0 0 0 3.673-3.672 3.676 3.676 0 0 0-3.673-3.672z"/></g><g><path fill="#2f3506" d="M25.921 25.966l-6.084-4.742a.918.918 0 1 0-1.13 1.448l6.085 4.743a.92.92 0 0 0 1.13-1.45z"/></g><g><path fill="#2f3506" d="M44.06 42.146c-4.555 0-8.262-3.706-8.262-8.262 0-4.557 3.707-8.263 8.263-8.263 4.557 0 8.263 3.706 8.263 8.263 0 4.556-3.706 8.262-8.263 8.262zm0-18.362c-5.567 0-10.098 4.531-10.098 10.1 0 5.568 4.53 10.099 10.099 10.099 5.568 0 10.1-4.53 10.1-10.1 0-5.568-4.532-10.099-10.1-10.099z"/></g><g><path fill="#2f3506" d="M44.06 32.965a1.838 1.838 0 0 1-1.836-1.835c0-1.013.824-1.837 1.837-1.837 1.012 0 1.836.824 1.836 1.837a1.838 1.838 0 0 1-1.836 1.835zm0-5.508a3.676 3.676 0 0 0-3.671 3.673 3.676 3.676 0 0 0 3.672 3.672 3.676 3.676 0 0 0 3.672-3.672 3.676 3.676 0 0 0-3.672-3.673z"/></g><g><path fill="#2f3506" d="M47.734 41.28a8.325 8.325 0 0 1-7.346 0v-1.873c0-.514.453-.933 1.01-.933h5.326c.557 0 1.01.419 1.01.933zm-6.337-4.642c-1.569 0-2.844 1.242-2.844 2.768v2.42c0 .328.174.63.457.795a10.094 10.094 0 0 0 5.05 1.362c1.767 0 3.513-.47 5.051-1.362a.917.917 0 0 0 .459-.794v-2.42c0-1.527-1.277-2.769-2.846-2.769z"/></g><g><path fill="#2f3506" d="M22.027 53.164c-4.557 0-8.263-3.707-8.263-8.263 0-4.557 3.706-8.263 8.263-8.263 4.556 0 8.262 3.706 8.262 8.263 0 4.556-3.706 8.263-8.262 8.263zm0-18.362c-5.569 0-10.1 4.53-10.1 10.1 0 5.568 4.531 10.098 10.1 10.098 5.568 0 10.099-4.531 10.099-10.099 0-5.568-4.53-10.1-10.1-10.1z"/></g><g><path fill="#2f3506" d="M22.027 43.983a1.838 1.838 0 0 1-1.836-1.837c0-1.012.823-1.836 1.836-1.836 1.012 0 1.835.824 1.835 1.836a1.837 1.837 0 0 1-1.835 1.837zm0-5.509a3.676 3.676 0 0 0-3.673 3.672 3.676 3.676 0 0 0 3.673 3.673 3.676 3.676 0 0 0 3.672-3.673 3.676 3.676 0 0 0-3.672-3.672z"/></g><g><path fill="#2f3506" d="M25.699 52.296a8.326 8.326 0 0 1-7.345 0v-1.872c0-.514.453-.932 1.009-.932h5.327c.556 0 1.009.418 1.009.932zm-1.009-4.64h-5.327c-1.569 0-2.845 1.242-2.845 2.768v2.42c0 .327.174.63.458.794A10.1 10.1 0 0 0 22.026 55c1.766 0 3.512-.471 5.05-1.362a.916.916 0 0 0 .46-.794v-2.42c0-1.526-1.277-2.769-2.846-2.769z"/></g><g><path fill="#2f3506" d="M10.091 30.211c-4.556 0-8.262-3.706-8.262-8.262 0-4.557 3.706-8.263 8.262-8.263 4.557 0 8.263 3.706 8.263 8.263 0 4.556-3.706 8.262-8.263 8.262zm0-18.362c-5.568 0-10.099 4.531-10.099 10.1 0 5.568 4.531 10.099 10.099 10.099 5.568 0 10.1-4.531 10.1-10.1 0-5.568-4.532-10.099-10.1-10.099z"/></g><g><path fill="#2f3506" d="M10.091 21.03a1.837 1.837 0 0 1-1.836-1.836c0-1.013.824-1.836 1.836-1.836 1.013 0 1.836.823 1.836 1.836a1.838 1.838 0 0 1-1.836 1.836zm0-5.508a3.676 3.676 0 0 0-3.672 3.672 3.676 3.676 0 0 0 3.672 3.673 3.676 3.676 0 0 0 3.673-3.673 3.676 3.676 0 0 0-3.673-3.672z"/></g><g><path fill="#2f3506" d="M13.764 29.344a8.326 8.326 0 0 1-7.345 0v-1.872c0-.514.452-.933 1.009-.933h5.327c.556 0 1.009.419 1.009.933zm-6.336-4.641c-1.569 0-2.845 1.242-2.845 2.768v2.42c0 .328.174.63.458.795a10.099 10.099 0 0 0 5.05 1.361c1.766 0 3.512-.47 5.05-1.361a.916.916 0 0 0 .46-.794v-2.42c0-1.527-1.278-2.77-2.846-2.77z"/></g><g><path fill="#2f3506" d="M32.126 18.276c-4.557 0-8.263-3.706-8.263-8.263 0-4.556 3.706-8.263 8.263-8.263 4.556 0 8.263 3.707 8.263 8.263 0 4.557-3.707 8.263-8.263 8.263zm0-18.362c-5.569 0-10.1 4.531-10.1 10.099 0 5.568 4.531 10.1 10.1 10.1 5.568 0 10.1-4.532 10.1-10.1-.002-5.568-4.532-10.099-10.1-10.099z"/></g><g><path fill="#2f3506" d="M32.126 9.095a1.838 1.838 0 0 1-1.837-1.836c0-1.013.824-1.837 1.837-1.837 1.012 0 1.836.824 1.836 1.837a1.838 1.838 0 0 1-1.836 1.836zm0-5.508a3.676 3.676 0 0 0-3.672 3.672 3.676 3.676 0 0 0 3.672 3.672 3.677 3.677 0 0 0 3.672-3.672 3.676 3.676 0 0 0-3.672-3.672z"/></g><g><path fill="#2f3506" d="M35.798 17.409a8.328 8.328 0 0 1-7.345 0v-1.873c0-.513.453-.932 1.01-.932h5.326c.556 0 1.009.419 1.009.932v1.873zm-1.009-4.641h-5.327c-1.569 0-2.845 1.241-2.845 2.767v2.42c0 .328.174.631.458.796a10.099 10.099 0 0 0 5.05 1.361 10.1 10.1 0 0 0 5.051-1.361.917.917 0 0 0 .458-.794v-2.42c0-1.528-1.276-2.77-2.845-2.77z"/></g><g><path fill="#2f3506" d="M23.643 9.416a.92.92 0 0 0-1.294-.1l-6.362 5.444a.918.918 0 1 0 1.193 1.394l6.362-5.444a.918.918 0 0 0 .101-1.294z"/></g><g><path fill="#2f3506" d="M43.877 24.153l-5.508-7.345a.919.919 0 0 0-1.47 1.1l5.51 7.346a.918.918 0 0 0 1.468-1.101z"/></g><g><path fill="#2f3506" d="M36.343 36.92a.919.919 0 0 0-1.286-.184l-5.128 3.846a.918.918 0 1 0 1.101 1.468l5.129-3.846a.916.916 0 0 0 .184-1.284z"/></g><g><path fill="#2f3506" d="M12.846 43.983H6.419a.918.918 0 1 0 0 1.836h6.426a.918.918 0 1 0 0-1.836z"/></g><g><path fill="#2f3506" d="M10.091 5.422a1.837 1.837 0 0 1-1.836-1.835c0-1.013.824-1.837 1.836-1.837a1.837 1.837 0 0 1 0 3.672zm0-5.508a3.676 3.676 0 0 0-3.672 3.673 3.676 3.676 0 0 0 3.672 3.672 3.676 3.676 0 0 0 3.673-3.672A3.676 3.676 0 0 0 10.09-.086z"/></g><g><path fill="#2f3506" d="M10.091 5.422a.918.918 0 0 0-.918.919v6.426a.918.918 0 1 0 1.837 0V6.341a.918.918 0 0 0-.919-.919z"/></g></g></g></svg>