<svg xmlns="http://www.w3.org/2000/svg" width="111" height="34" viewBox="0 0 111 34"><g><g><g><g><path fill="#877e80" d="M47.615 19.793l-2.996-7.47h-1.912l4.116 9.935h1.595l4.117-9.936h-1.912z"/></g><g><path fill="#877e80" d="M58.16 18.111h4.742V16.39h-4.743v-2.345h5.14v-1.722h-6.915v9.936h6.995v-1.722h-5.22z"/></g><g><path fill="#877e80" d="M74.519 19.068l-5.08-6.746h-1.53v9.936h1.775V15.5l5.08 6.758h1.53v-9.936H74.52z"/></g><g><path fill="#877e80" d="M81.381 22.258v-9.936h1.775v9.936z"/></g><g><path fill="#877e80" d="M90.416 18.323l1.555-3.669 1.564 3.67zm.728-6l-4.33 9.935h1.93l.954-2.239h4.557l.954 2.239h1.915l-4.314-9.936z"/></g><g><path fill="#877e80" d="M109.305 12.322l-3.651 5.459-3.652-5.459h-1.462v9.936h1.776v-6.406l2.816 4.22h1.043l2.817-4.22v6.406h1.775v-9.936z"/></g></g><g><path fill="#877e80" d="M29.85 25.61a5.428 5.428 0 0 1-1.5 1.062 7.254 7.254 0 0 0-1.476-4.378l3.613-3.613c1.45 2.117 1.234 5.059-.636 6.929zM17.968 31.2zm3.689-3.688a7.156 7.156 0 0 0 4.347 1.459l.08-.001a5.463 5.463 0 0 1-1.112 1.594c-1.891 1.891-4.867 2.109-7.004.637zM8.33 30.489a5.442 5.442 0 0 1-1.062-1.501 7.216 7.216 0 0 0 4.38-1.476l3.613 3.612c-2.117 1.452-5.06 1.235-6.93-.635zM2.738 18.601l3.69 3.69a7.188 7.188 0 0 0-1.461 4.426 5.467 5.467 0 0 1-1.593-1.107 5.51 5.51 0 0 1-.636-7.009zm.713-9.632c.44-.44.947-.798 1.499-1.062A7.243 7.243 0 0 0 6.49 12.37l-3.616 3.616a5.396 5.396 0 0 1-1.018-3.17c0-1.453.566-2.82 1.594-3.847zm11.974-5.532l-3.693 3.692a7.153 7.153 0 0 0-4.434-1.525l-.077.001a5.495 5.495 0 0 1 8.204-2.168zm9.548.65a5.4 5.4 0 0 1 1.062 1.502 7.21 7.21 0 0 0-4.464 1.541l-3.616-3.618a5.452 5.452 0 0 1 7.018.575zm.72 16.885a15.735 15.735 0 0 0-5.596-3.684 15.72 15.72 0 0 0 5.522-3.606l3.682 3.682zm-18.01-7.29a15.716 15.716 0 0 0 5.52 3.607A15.731 15.731 0 0 0 7.61 20.97l-3.608-3.608zm14.414-4.658v.001a.887.887 0 0 0 .063-.056 5.46 5.46 0 0 1 4.378-1.588 5.407 5.407 0 0 1-1.566 4.398 13.949 13.949 0 0 1-7.198 4.386 13.938 13.938 0 0 1 4.323-7.14zm-5.445-4.312l3.606 3.609a15.714 15.714 0 0 0-3.607 5.52 15.732 15.732 0 0 0-3.607-5.52zm-9.91 2.69a5.404 5.404 0 0 1 4.445 1.605 13.953 13.953 0 0 1 4.343 7.159 13.936 13.936 0 0 1-7.154-4.334l-.006-.007-.002-.002a1.003 1.003 0 0 0-.038-.04 5.485 5.485 0 0 1-1.589-4.38zm4.444 18.169a.577.577 0 0 0-.018.016l-.058.05a.893.893 0 0 0-.082.083l-.006.007a5.46 5.46 0 0 1-4.257 1.469 5.425 5.425 0 0 1 1.448-4.277l.006-.006a1.147 1.147 0 0 0 .083-.083l.022-.025.008-.01.02-.023a13.954 13.954 0 0 1 7.177-4.362 13.972 13.972 0 0 1-4.343 7.16zm5.466 4.441L12.97 26.33a15.746 15.746 0 0 0 3.681-5.594 15.746 15.746 0 0 0 3.681 5.596zm9.908-2.84a5.399 5.399 0 0 1-4.373-1.536 1.884 1.884 0 0 0-.036-.033l-.005-.005.011.012a13.963 13.963 0 0 1-4.383-7.2 13.96 13.96 0 0 1 7.231 4.429v.001a.885.885 0 0 0 .037.038l.012.011.028.026.008.007a5.484 5.484 0 0 1 1.47 4.25zm3.942-11.11l-3.693-3.693a7.155 7.155 0 0 0 1.527-4.509c.589.27 1.127.644 1.592 1.108a5.505 5.505 0 0 1 .574 7.094zm.678-8.345a7.247 7.247 0 0 0-3.147-1.851 7.164 7.164 0 0 0-1.81-3.032C23.636.251 19.56.044 16.737 2.211c-2.85-2.27-7.023-2.086-9.658.55a7.25 7.25 0 0 0-1.852 3.146c-1.14.341-2.177.96-3.028 1.81a7.164 7.164 0 0 0-2.112 5.1 7.15 7.15 0 0 0 1.487 4.385c-2.267 2.85-2.085 7.023.548 9.66a7.243 7.243 0 0 0 3.147 1.848 7.19 7.19 0 0 0 1.81 3.03 7.17 7.17 0 0 0 5.041 2.112h.059a7.16 7.16 0 0 0 4.386-1.487 7.208 7.208 0 0 0 4.52 1.579h.057a7.222 7.222 0 0 0 5.08-2.128 7.207 7.207 0 0 0 1.853-3.147 7.162 7.162 0 0 0 3.027-1.808 7.17 7.17 0 0 0 2.112-5.041 7.16 7.16 0 0 0-1.487-4.445c2.269-2.847 2.087-7.02-.547-9.658z"/></g></g></g></svg>