<svg xmlns="http://www.w3.org/2000/svg" width="59" height="57" viewBox="0 0 59 57"><g><g><g><g><g><path fill="#868787" d="M3.926 53.06H2.45l.743-1.714zm2.45 2.432l-2.55-5.903H2.55L0 55.492h1.402l.549-1.275h2.474l.548 1.275z"/></g><g><path fill="#868787" d="M12.414 53.85a1.623 1.623 0 0 1-1.245.553c-.493 0-.908-.185-1.246-.553a1.915 1.915 0 0 1-.506-1.343c0-.526.169-.975.506-1.347a1.618 1.618 0 0 1 1.246-.557c.492 0 .908.186 1.245.557.338.372.507.82.507 1.347s-.169.974-.507 1.343zm1.85-1.347c0-.867-.299-1.592-.895-2.175-.597-.582-1.332-.873-2.204-.873-.873 0-1.608.29-2.204.873-.597.583-.895 1.308-.895 2.175 0 .867.298 1.592.895 2.174.596.583 1.331.874 2.204.874.174.338.424.6.751.786.326.185.659.278.996.278.727 0 1.332-.256 1.816-.768l-.684-.82a1.23 1.23 0 0 1-.312.347 1.122 1.122 0 0 1-.616.186.712.712 0 0 1-.343-.089.607.607 0 0 1-.24-.215c.529-.242.95-.608 1.262-1.098a3.01 3.01 0 0 0 .469-1.655z"/></g><g><path fill="#868787" d="M18.638 53.968c.22.273.515.41.887.41.37 0 .665-.137.882-.41.216-.273.325-.646.325-1.119v-3.26h1.317v3.302c0 .856-.236 1.513-.709 1.972-.473.459-1.078.688-1.816.688-.737 0-1.344-.23-1.82-.692-.475-.462-.713-1.118-.713-1.968V49.59h1.317v3.26c0 .473.11.846.33 1.119z"/></g><g><path fill="#868787" d="M28.112 53.06h-1.478l.744-1.714zm2.449 2.432l-2.55-5.903h-1.275l-2.55 5.903h1.401l.55-1.275h2.473l.55 1.275z"/></g><g><path fill="#868787" d="M35.003 50.73v4.762h-1.317V50.73h-1.672v-1.14h4.66v1.14z"/></g><g><path fill="#868787" d="M42.526 52.25c-.163.146-.47.219-.92.219h-.963V50.72h.988c.422 0 .718.059.887.177.169.119.253.337.253.655s-.082.55-.245.697zm1.588-.701c0-.687-.196-1.185-.587-1.495-.391-.31-1.046-.464-1.963-.464h-2.238v5.902h1.317V53.61h.912l1.31 1.883h1.62l-1.494-2.11c.748-.277 1.123-.888 1.123-1.833z"/></g><g><path fill="#868787" d="M51.41 49.59v1.173h-2.94v1.216h2.644v1.123h-2.643v1.225h3.031v1.165h-4.348V49.59z"/></g><g><path fill="#868787" d="M58.62 49.59v1.173h-2.938v1.216h2.643v1.123h-2.643v1.225h3.032v1.165h-4.349V49.59z"/></g></g></g><g><g><path fill="#60b59c" d="M48.656 31.796c-3.087-1.626-5.322.29-7.426 1.748a5.58 5.58 0 0 1-6.327 0l-1.458-1.01a7.283 7.283 0 0 0-8.26 0l-1.457 1.01a5.58 5.58 0 0 1-6.328 0c-2.094-1.451-4.062-3.202-7.32-1.845a.848.848 0 1 0 .652 1.565c2.329-.97 3.645.248 5.702 1.674a7.283 7.283 0 0 0 8.26 0l1.457-1.01a5.58 5.58 0 0 1 6.328 0c1.63 1.13 3.002 2.294 5.587 2.294 4.93 0 6.244-4.799 9.8-2.925a.847.847 0 1 0 .79-1.5z"/></g><g><path fill="#60b59c" d="M44 37.11c-.107.087-.217.183-.345.294-.842.738-2.412 2.114-5.472 2.03-5.242-.142-6.617-5.192-12.758-1.49-.983.592-3.096 1.446-4.716 1.49-3.475.094-5.018-1.681-5.817-2.323a.848.848 0 0 0-1.061 1.322c.078.063.175.148.288.247.944.828 2.91 2.55 6.635 2.449 1.817-.05 4.213-.93 5.546-1.733 1.256-.757 2.256-1.11 3.146-1.11.89 0 1.89.353 3.146 1.11 1.332.804 3.729 1.684 5.545 1.733 3.824.102 5.55-1.593 6.924-2.695a.848.848 0 1 0-1.062-1.323z"/></g><g><path fill="#60b59c" d="M32.892 42.815c-2.515-1.744-4.384-1.927-7.155 0a.848.848 0 0 0 .969 1.393c2.133-1.486 3.262-1.356 5.22 0a.848.848 0 1 0 .966-1.393z"/></g><g><path fill="#60b59c" d="M15.107 28.81c1.568 1.086 2.98 2.296 5.697 2.296 3.231 0 6.345-2.144 6.668-5.917.006-.098.004-4.98.004-5.078 0-2.66-3.258-5.107-5.332-7.438a91.081 91.081 0 0 0-.61-5.134c.119-.113-.117.217 3.808-5.701a.848.848 0 0 0-1.414-.937l-2.762 4.164a83.965 83.965 0 0 1-.328-2.425.848.848 0 0 0-1.684.198c.309 2.622.769 4.998 1.126 8.23-2.204-1.836-2.9-2.523-5.676-4.638a.848.848 0 1 0-1.028 1.35 83.333 83.333 0 0 1 2.634 2.077l-4.103-.223a.848.848 0 0 0-.092 1.693l6.347.345c.627.53 1.37 1.15 2.371 1.964 1.725 1.985 4.489 4.196 4.975 5.977-1.357-1.324-3.084-1.937-4.95-2.17-1.172-1.832-2.782-3.258-2.854-3.32a.848.848 0 0 0-1.119 1.274c.012.01.915.809 1.806 1.932a18.644 18.644 0 0 0-2.524.2l-5.25-4.364a.848.848 0 1 0-1.084 1.304l3.44 2.86H8.473a.848.848 0 1 0 0 1.695h4.995l-5.71 3.633a.848.848 0 0 0 .91 1.431l7.679-4.885c.608-.091 2.87-.377 4.966.041-1.616 1.532-3.458 3.57-3.555 3.678a.848.848 0 1 0 1.259 1.136c.027-.03 2.481-2.745 4.132-4.197 2.789 1.439 2.63 3.658 2.63 5.218-.19 3.096-3.076 4.019-3.405 4.114-1.627.47-3.483.176-4.844-.767l-1.457-1.01c-2.151-1.492-5.253-1.631-7.717-.348a.848.848 0 1 0 .784 1.504c1.89-.985 4.344-.887 5.966.237z"/></g><g><path fill="#60b59c" d="M49.925 21.516a.847.847 0 1 0 1.15-1.246c-1.57-1.455-3.221-2.87-6.183-4.013l3.411-.617a.848.848 0 0 0-.302-1.669c-7.347 1.328-6.93 1.244-7.05 1.29a9.138 9.138 0 0 0-1.52-.006 554.164 554.164 0 0 1 3.285-3.287c.122.02-.158.012 4.238.027a.848.848 0 1 0 .006-1.695l-2.545-.01a354.23 354.23 0 0 1 1.697-1.658.848.848 0 0 0-1.18-1.219c-.022.021-1.314 1.273-3.29 3.232.222-1.956.331-3.303.692-5.897a.848.848 0 0 0-1.68-.234c-.483 3.476-.528 4.815-.958 8.07-.815.817-1.693 1.701-2.609 2.63l-.373-5.317a.847.847 0 1 0-1.691.118c.488 6.967.453 6.528.473 6.625-.834.552-1.703 1.313-2.318 2.15-.437-1.528-.99-2.058-1.855-3.113-.6-.73-1.368-1.666-2.259-2.734l.82-1.938c3.058-2.572 7.562-6.475 8.888-7.625a.848.848 0 0 0-1.11-1.281c-.984.853-3.717 3.22-6.307 5.434l2.587-6.109a.848.848 0 1 0-1.562-.66l-1.969 4.65c-.244-1.716-.489-3.157-.718-4.691a.849.849 0 0 0-1.677.25c.349 2.335.732 4.451 1.08 7.545l-1.257 2.969c-.317-.375-.645-.76-.982-1.152l-.525-4.35a.848.848 0 0 0-1.683.202l.586 4.864c2.698 3.132 4.498 5.372 5.553 6.644.312.377 1.311 1.861 1.024 5.123a17.964 17.964 0 0 0-.022 2.124c.172 3.973 3.195 5.649 3.996 5.88.66.191 1.35.284 2.042.284 2.7 0 4.1-1.191 5.696-2.297 1.887-1.308 4.153-1.3 6.06.021a.848.848 0 1 0 .966-1.394c-2.475-1.715-5.537-1.722-7.992-.02l-1.458 1.01c-1.36.943-3.217 1.237-4.843.767-.026-.007-2.63-1.023-2.773-4.325-.162-3.732.706-4.981 2.12-6.189 1.294-1.104 2.678-1.681 4.237-1.75l3.5 5.472a.849.849 0 0 0 1.428-.914l-2.788-4.36c.25.055.504.119.762.193 3.401.984 5.24 2.396 7.182 4.196z"/></g></g></g></g></svg>