<svg xmlns="http://www.w3.org/2000/svg" width="76" height="63" viewBox="0 0 76 63"><g><g><g><g><g><path fill="#2fc77a" d="M4.461 18.53a.582.582 0 1 0-.656.962.582.582 0 0 0 .656-.962z"/></g><g><path fill="#2fc77a" d="M3.234 22.234a1.213 1.213 0 0 0-1.136 2.141 1.213 1.213 0 0 0 1.136-2.141z"/></g><g><path fill="#2fc77a" d="M2.518 27.418a1.84 1.84 0 1 0-1.354 3.424 1.84 1.84 0 0 0 1.354-3.424z"/></g><g><path fill="#2fc77a" d="M3.421 33.77a2.47 2.47 0 1 0-1.303 4.766 2.47 2.47 0 0 0 1.303-4.765z"/></g><g><path fill="#2fc77a" d="M8.898 45.101a3.097 3.097 0 1 0-6.116-.99 3.097 3.097 0 1 0 6.116.99z"/></g><g opacity=".2"><path fill="#2fc77a" d="M25.385 62.072a.582.582 0 1 0 0 0z"/></g><g opacity=".4"><path fill="#2fc77a" d="M20.763 59.3a1.211 1.211 0 1 0-.451 2.382 1.211 1.211 0 1 0 .451-2.382z"/></g><g opacity=".6"><path fill="#2fc77a" d="M16.011 55.737a1.843 1.843 0 0 0-2.301 1.219 1.84 1.84 0 1 0 3.518 1.083 1.838 1.838 0 0 0-1.217-2.302z"/></g><g opacity=".8"><path fill="#2fc77a" d="M11.547 50.115a2.471 2.471 0 1 0-1.958 4.534 2.471 2.471 0 0 0 1.958-4.534z"/></g></g><g><g><path fill="#2fc77a" d="M23.47.387a.585.585 0 1 0-1.097.393.585.585 0 0 0 1.097-.393z"/></g><g><path fill="#2fc77a" d="M20.3 2.66a1.213 1.213 0 1 0-2.178 1.068 1.213 1.213 0 0 0 2.179-1.067z"/></g><g><path fill="#2fc77a" d="M16.672 6.435a1.842 1.842 0 1 0-3.11 1.974 1.842 1.842 0 0 0 3.11-1.974z"/></g><g><path fill="#2fc77a" d="M13.67 12.105a2.469 2.469 0 1 0-3.856 3.086 2.469 2.469 0 0 0 3.855-3.086z"/></g><g><path fill="#2fc77a" d="M11.44 24.49a3.097 3.097 0 1 0-4.364-4.398 3.099 3.099 0 0 0 4.364 4.398z"/></g><g opacity=".2"><path fill="#2fc77a" d="M14.805 47.912a.584.584 0 1 0-.89-.756.584.584 0 0 0 .89.756z"/></g><g opacity=".4"><path fill="#2fc77a" d="M12.695 42.953a1.212 1.212 0 1 0-1.766 1.66 1.212 1.212 0 0 0 1.766-1.66z"/></g><g opacity=".6"><path fill="#2fc77a" d="M10.946 37.276A1.842 1.842 0 0 0 8 39.486a1.84 1.84 0 0 0 2.576.367 1.84 1.84 0 0 0 .369-2.577z"/></g><g opacity=".8"><path fill="#2fc77a" d="M10.637 30.106a2.47 2.47 0 1 0-4.251 2.516 2.47 2.47 0 0 0 4.25-2.516z"/></g></g></g><g><g><path fill="#292526" d="M24.533 38.587V36.9c.194.17.424.322.693.46.27.135.554.25.85.344.3.093.597.166.9.22.302.048.579.074.834.074.88 0 1.537-.162 1.972-.49.434-.326.652-.795.652-1.409 0-.328-.073-.616-.218-.859a2.441 2.441 0 0 0-.6-.667 5.72 5.72 0 0 0-.906-.577 58.19 58.19 0 0 0-1.13-.582 20.225 20.225 0 0 1-1.19-.656 5.07 5.07 0 0 1-.962-.733 3.054 3.054 0 0 1-.644-.908c-.155-.337-.234-.733-.234-1.187 0-.556.124-1.04.367-1.451.243-.412.564-.75.96-1.019.4-.266.85-.465 1.36-.595a6.135 6.135 0 0 1 1.554-.196c1.204 0 2.082.145 2.63.435v1.609c-.72-.499-1.646-.75-2.775-.75a4.5 4.5 0 0 0-.936.098c-.31.066-.59.173-.835.32a1.815 1.815 0 0 0-.595.57c-.153.233-.23.516-.23.85 0 .312.058.583.175.809.117.228.288.434.514.622.228.185.503.368.83.543.327.175.704.371 1.128.578.437.217.85.443 1.244.682.393.236.736.5 1.03.79.294.29.528.61.7.961.173.352.26.755.26 1.209 0 .6-.119 1.11-.353 1.527a2.91 2.91 0 0 1-.952 1.02c-.401.261-.861.449-1.383.566a7.513 7.513 0 0 1-1.65.175c-.194 0-.432-.015-.716-.045a9.871 9.871 0 0 1-.867-.136 6.404 6.404 0 0 1-.838-.222 2.692 2.692 0 0 1-.639-.294z"/></g><g><path fill="#292526" d="M39.215 28.166c1.91 0 2.862.808 2.862 2.419 0 .823-.26 1.46-.78 1.911-.517.452-1.27.676-2.258.676H37.54v-5.006zm-1.674 6.3h1.606c1.358 0 2.436-.37 3.233-1.109.797-.737 1.198-1.685 1.198-2.842s-.36-2.055-1.079-2.69c-.718-.635-1.73-.952-3.034-.952H36.11V39.08h1.43v-4.613z"/></g><g><path fill="#292526" d="M50.239 26.873v1.225h-1.191v9.756h1.191v1.225h-3.814v-1.225h1.193v-9.756h-1.193v-1.225z"/></g><g><path fill="#292526" d="M63.843 39.081H62.09l-6.282-9.73a4.133 4.133 0 0 1-.392-.767h-.049c.045.262.066.82.066 1.677v8.82h-1.43V26.873h1.856l6.112 9.576c.256.399.42.67.494.819h.037c-.058-.352-.086-.95-.086-1.797v-8.598h1.43V39.08z"/></g><g><path fill="#292526" d="M75.257 39.081h-6.47V26.873h6.197v1.293h-4.767v4.062h4.409v1.285h-4.409v4.273h5.04v1.295z"/></g></g></g></g></svg>