<svg xmlns="http://www.w3.org/2000/svg" width="100" height="48" viewBox="0 0 100 48"><g><g><g><g><path fill="#38415f" d="M91.85 19.574v1.972h2.636v6.817h2.109v-6.817h2.675v-1.972z"/></g><g><path fill="#38415f" d="M75.584 26.392v-1.557h3.352V22.99h-3.352v-1.444h4.281v-1.972h-6.391v8.79h6.466v-1.972z"/></g><g><path fill="#38415f" d="M68.15 19.574v2.01c0 1.594.026 3.15.013 3.15h-.012c-.013 0-1.356-1.895-1.921-2.649l-1.87-2.51h-1.985v8.788h2.11v-1.946c0-1.921-.025-3.277-.013-3.277h.013c.012 0 1.192 1.67 1.996 2.775l1.795 2.448h1.984v-8.789h-2.11z"/></g><g><path fill="#38415f" d="M57.052 19.574v2.01c0 1.594.025 3.15.012 3.15h-.012c-.012 0-1.356-1.895-1.921-2.649l-1.87-2.51h-1.985v8.788h2.11v-1.946c0-1.921-.026-3.277-.013-3.277h.013c.012 0 1.192 1.67 1.996 2.775l1.795 2.448h1.984v-8.789h-2.11z"/></g><g><path fill="#38415f" d="M39.575 23.969c0-2.65 2.034-4.57 4.557-4.57 2.524 0 4.57 1.92 4.57 4.57 0 2.65-2.046 4.57-4.57 4.57-2.523 0-4.557-1.92-4.557-4.57m2.197 0c0 1.468.941 2.486 2.36 2.486 1.432 0 2.373-1.018 2.373-2.486 0-1.482-.941-2.486-2.373-2.486-1.419 0-2.36 1.004-2.36 2.486"/></g><g><path fill="#38415f" d="M36.22 25.727a2.486 2.486 0 1 1 0-3.516l1.473-1.474a4.57 4.57 0 1 0 0 6.463z"/></g><g><path fill="#38415f" d="M88.466 25.727a2.486 2.486 0 1 1 0-3.516l1.474-1.474a4.57 4.57 0 1 0 0 6.463z"/></g></g><g><path fill="#48bcc7" d="M19.48 21.514L5.926 7.961a3.47 3.47 0 1 0-4.909 4.91l11.098 11.098 2.455-2.455a3.47 3.47 0 0 1 4.91 0z"/></g><g><path fill="#48bcc7" d="M17.025 27.44a3.46 3.46 0 0 1-2.455-1.017l-2.455-2.454L1.017 35.067a3.47 3.47 0 1 0 4.91 4.91L19.48 26.422a3.461 3.461 0 0 1-2.455 1.018z"/></g><g><path fill="#329096" d="M17.025 27.44a3.47 3.47 0 1 0-2.455-5.927l-2.455 2.456 2.455 2.454a3.46 3.46 0 0 0 2.455 1.018z"/></g><g><path fill="#b329b7" d="M21.514 19.48a3.47 3.47 0 0 1 0-4.91l2.455-2.455L12.87 1.017a3.47 3.47 0 1 0-4.91 4.91z"/></g><g><path fill="#b329b7" d="M26.423 19.48l6.352-6.352a3.47 3.47 0 1 0-4.91-4.91l-3.896 3.898 2.454 2.454a3.47 3.47 0 0 1 0 4.91z"/></g><g><path fill="#86258e" d="M21.514 19.48a3.46 3.46 0 0 0 2.455 1.017 3.471 3.471 0 0 0 2.455-5.927l-2.455-2.455-2.455 2.455a3.47 3.47 0 0 0 0 4.91z"/></g><g><path fill="#aecb40" d="M21.514 28.458L7.961 42.01a3.47 3.47 0 0 0 2.455 5.926c.888 0 1.776-.339 2.455-1.017l11.098-11.098-2.455-2.455a3.47 3.47 0 0 1 0-4.91z"/></g><g><path fill="#aecb40" d="M26.423 28.458a3.471 3.471 0 0 1 0 4.91l-2.454 2.454 3.896 3.897a3.46 3.46 0 0 0 2.455 1.017 3.47 3.47 0 0 0 2.455-5.927z"/></g><g><path fill="#94a839" d="M26.423 28.458a3.47 3.47 0 1 0-4.909 4.91l2.455 2.454 2.455-2.455a3.471 3.471 0 0 0 0-4.91z"/></g></g></g></svg>