<svg xmlns="http://www.w3.org/2000/svg" width="59" height="57" viewBox="0 0 59 57"><defs><linearGradient id="lra3a" x1="16.53" x2="65.2" y1="14.4" y2="53.91" gradientUnits="userSpaceOnUse"><stop offset="0" stop-color="#c08f83"/><stop offset="1" stop-color="#8b5f5e"/></linearGradient><linearGradient id="lra3b" x1="-7.27" x2="41.39" y1="43.73" y2="83.24" gradientUnits="userSpaceOnUse"><stop offset="0" stop-color="#c08f83"/><stop offset="1" stop-color="#8b5f5e"/></linearGradient><linearGradient id="lra3c" x1="-2.6" x2="46" y1="38.01" y2="77.52" gradientUnits="userSpaceOnUse"><stop offset="0" stop-color="#c08f83"/><stop offset="1" stop-color="#8b5f5e"/></linearGradient><linearGradient id="lra3d" x1="2.45" x2="51.12" y1="31.74" y2="71.25" gradientUnits="userSpaceOnUse"><stop offset="0" stop-color="#c08f83"/><stop offset="1" stop-color="#8b5f5e"/></linearGradient><linearGradient id="lra3e" x1="7.69" x2="56.37" y1="25.28" y2="64.79" gradientUnits="userSpaceOnUse"><stop offset="0" stop-color="#c08f83"/><stop offset="1" stop-color="#8b5f5e"/></linearGradient><linearGradient id="lra3f" x1="12" x2="60.66" y1="19.98" y2="59.5" gradientUnits="userSpaceOnUse"><stop offset="0" stop-color="#c08f83"/><stop offset="1" stop-color="#8b5f5e"/></linearGradient></defs><g><g><g><path fill="url(#lra3a)" d="M44.398 34.521l-4.507-10.895c.308-.047.62-.078.938-.078a6.083 6.083 0 0 1 6.066 6.075 6.065 6.065 0 0 1-2.497 4.898zm-7.159.009l-1.137-.832-9.752-23.576 2.943-7.116 6.021 14.557 7.379 17.836a6.048 6.048 0 0 1-1.873.298 6.024 6.024 0 0 1-3.58-1.167zM21.116 22.775l2.353-5.688 1.846-4.464 7.821 18.905-11.421-8.354a8.466 8.466 0 0 0-.599-.399zm-7.093 12.142a6.112 6.112 0 0 1-3.094-5.294 6.081 6.081 0 0 1 7.707-5.854zm26.797-13.28c-.569 0-1.128.064-1.676.182l-2.168-5.24L30.434.762A1.232 1.232 0 0 0 29.294 0c-.502 0-.95.3-1.142.763l-7.14 17.26-1.641 3.97a7.979 7.979 0 0 0-2.368-.356c-4.403 0-7.986 3.582-7.986 7.986a8.028 8.028 0 0 0 5.173 7.476.955.955 0 0 0 1.22-.529l4.964-12.001c.071.047.142.097.211.148L36.11 36.073a7.924 7.924 0 0 0 4.71 1.536c4.404 0 7.986-3.583 7.986-7.986 0-4.398-3.578-7.98-7.986-7.986z"/></g><g><g><path fill="url(#lra3b)" d="M5.016 48.64l.041.098 1.926 4.515H3.062l1.911-4.514.043-.098zm-.713-1.624L0 56.893h1.514l.992-2.327h5.033l.991 2.327h1.5l-4.29-9.877z"/></g><g><path fill="url(#lra3c)" d="M15.252 47.016h-1.396v9.877h6.738v-1.34h-5.342z"/></g><g><path fill="url(#lra3d)" d="M30.789 50.247c0 1.307-.846 1.89-2.745 1.89h-2.07v-3.78h2.07c.885 0 1.528.122 1.967.374.524.3.778.796.778 1.516zm.146-2.56c-.694-.445-1.686-.671-2.945-.671h-3.41v9.877h1.394v-3.415h2.016c1.26 0 2.25-.226 2.945-.67.838-.538 1.263-1.4 1.263-2.561 0-1.162-.425-2.023-1.263-2.56z"/></g><g><path fill="url(#lra3e)" d="M43.302 51.27h-5.476v-4.254h-1.395v9.877h1.395v-4.282h5.476v4.282h1.396v-9.877h-1.396z"/></g><g><path fill="url(#lra3f)" d="M53.524 48.64zm.042.098l1.925 4.515h-3.92l1.911-4.514.042-.098.042.097zm.684-1.722h-1.437l-4.304 9.877h1.514l.992-2.327h5.033l.991 2.327h1.5z"/></g></g></g></g></svg>