<svg xmlns="http://www.w3.org/2000/svg" width="111" height="33" viewBox="0 0 111 33"><g><g><g><g><path fill="#baa952" d="M16.78 30.286c-1.939 1.434-3.513 2.288-3.845 2.463a.138.138 0 0 1-.128 0c-.886-.467-10.65-5.786-12.518-14.063-.035-.157.178-.237.256-.098 1.335 2.388 4.343 4.131 6.495 5.29 1.818.977 3.935 1.738 5.831 2.783 1.562.86 2.974 1.913 3.944 3.44a.139.139 0 0 1-.035.185z"/></g><g><path fill="#baa952" d="M25.742 4.264V.308A.308.308 0 0 0 25.434 0h-9.457a.505.505 0 0 0-.463.354l-.658 2.434a.505.505 0 0 1-.463.354h-4.299V1.884c1.276-.047 2.162-.259 2.777-.524C13.892.92 14.165.33 14.234.098A.077.077 0 0 0 14.161 0H8.42C7.246 0 6.067.319 5.438 1.389c-.671 1.14-.632 2.704-.571 3.98 0 0-1.73-2.294-1.412-5.157A.19.19 0 0 0 3.265 0H.305A.305.305 0 0 0 0 .304v.78c.169 2.744 1.702 9.995 12.871 13.348 9.418 2.829 10.817 7.167 11.091 7.927.014.04.068.042.088.005 2.608-4.984-2.823-8.573-2.823-8.573 1.085 0 2.744.621 4.086 1.378a.287.287 0 0 0 .43-.25V9.39c0-.328-.31-.57-.63-.49-.467.117-1.04.231-1.138.25-1.367.27-2.936.387-4.225-.302-1.286-.687-1.637-2.295-.635-3.403.876-.968 2.27-1.298 3.543-1.21.816.055 1.911.262 2.553.437a.421.421 0 0 0 .531-.407z"/></g><g><path fill="#baa952" d="M19.513 28.014a.138.138 0 0 1-.209-.004c-.47-.563-2.614-2.979-6.433-5.072a26.272 26.272 0 0 0-2.777-1.316C4.084 19.192.303 16.658 0 9.91v-.216c0-.134.171-.189.25-.08 2.203 3.014 5.012 4.776 8.422 6.469 1.396.692 2.812 1.258 4.199 1.844 2.291.969 4.501 1.993 6.399 3.734.56.514 1.007 1.01 1.275 1.733.384 1.038.62 2.806-1.032 4.619z"/></g></g><g><g><path fill="#51544f" d="M41.526 12.767v2.431h3.095v2.432h-3.095v4.863h-2.432V10.335h6.071v2.432h-3.639z"/></g><g><path fill="#51544f" d="M50.504 18.259v-7.924h2.432v7.907c0 2.55 3.945 2.55 3.945 0v-7.907h2.415v7.924c0 5.782-8.792 5.782-8.792 0z"/></g><g><path fill="#51544f" d="M71.011 22.561c-8.026 0-8.434-12.022 0-12.328 1.445-.05 2.619.374 2.84.442l-.289 2.466c-.476-.204-1.259-.476-2.55-.442-4.915.17-4.694 7.43 0 7.43.22 0 .458-.033.68-.067v-3.656h2.465v5.34a6.327 6.327 0 0 1-3.146.815z"/></g><g><path fill="#51544f" d="M80.227 22.493V10.335h2.432v12.158z"/></g><g><path fill="#51544f" d="M91.824 18.905l1.14-3.163 1.105 3.163zm-4.115 3.588h2.755l.476-1.309h4.03l.493 1.31H98.2L93.082 9.892h-.255z"/></g><g><path fill="#51544f" d="M105.309 22.493v-9.726h-3.027v-2.415h8.485v2.415h-3.027v9.726z"/></g></g></g></g></svg>